<?xml version="1.0" encoding="UTF-8"?>
<svg id="Layer_1" data-name="Layer 1" xmlns="http://www.w3.org/2000/svg" viewBox="0 0 301.78 306.05">
  <defs>
    <style>
      .cls-1 {
        fill: #dee21d;
      }
    </style>
  </defs>
  <path class="cls-1" d="M122.75,71.89L152.66,7.48c4.98-10.72,20.55-9.67,24.05,1.62l28.19,91.02c2.38,7.69,11.14,11.35,18.28,7.64l47.16-24.46c11.35-5.88,23.43,6.53,17.24,17.71l-32.67,59.09c-2.43,4.39-2.09,9.79,.86,13.85l43.47,59.68c7.39,10.14-2.57,23.8-14.49,19.86l-82.88-27.37c-4.99-1.65-10.49-.1-13.89,3.91l-60.64,71.43c-7.78,9.16-22.76,3.66-22.76-8.36v-118.9c0-4.32-2.16-8.35-5.75-10.74L5.78,101.43c-10.72-7.15-5.51-23.86,7.37-23.66l97.68,1.59c5.1,.08,9.77-2.85,11.92-7.47Z"/>
</svg>